#!OML:ASF F:\VICON\USERDATA\INSTALL\rory3\rory3.ASF
:FULLY-SPECIFIED
:DEGREES
309
root 0.873744 17.8766 22.8549 -4.57397 4.51628 5.28345
lowerback 14.2285 -1.41377 -7.24875
upperback -0.24111 -3.00389 1.03959
thorax -7.83571 -1.14554 5.8405
lowerneck -9.75084 -0.089676 -1.61979
upperneck 28.7105 0.677598 -1.66045
head 10.838 -0.0626041 -0.238392
rclavicle 3.06004e-014 3.18055e-015
rhumerus -39.3038 -11.1372 -78.6037
rradius 28.1449
rwrist 4.072
rhand -12.4571 9.60641
rfingers 7.12502
rthumb 13.6165 -19.9283
lclavicle 3.06004e-014 3.18055e-015
lhumerus -33.6053 -4.5527 85.4641
lradius 43.3727
lwrist 7.80585
lhand -15.7431 49.8128
lfingers 7.12502
lthumb 10.448 79.5332
rfemur -25.0648 8.27342 11.3194
rtibia 14.0733
rfoot -17.1593 -21.8877
rtoes 0.651956
lfemur 15.9324 -4.07125 -31.2821
ltibia 11.3934
lfoot -13.9851 -0.46191
ltoes -3.87151
310
root 0.858542 17.8603 22.9959 -4.33219 4.55113 5.44499
lowerback 14.3393 -1.41543 -7.33085
upperback -0.396767 -3.04379 0.932779
thorax -8.0645 -1.14783 5.79068
lowerneck -9.83722 -0.0860509 -1.46277
upperneck 28.8719 0.682408 -1.75779
head 10.9169 -0.0574654 -0.301039
rclavicle 3.94836e-014 -1.19271e-014
rhumerus -39.5017 -11.6215 -78.4192
rradius 27.837
rwrist 4.58926
rhand -12.5345 10.0036
rfingers 7.12502
rthumb 13.5419 -19.536
lclavicle 3.94836e-014 -1.19271e-014
lhumerus -33.6573 -4.46217 85.2828
lradius 43.528
lwrist 7.51138
lhand -16.0281 51.0791
lfingers 7.12502
lthumb 10.173 80.8131
rfemur -25.5169 6.83801 11.7665
rtibia 14.6998
rfoot -15.5049 -21.165
rtoes -0.037483
lfemur 16.3904 -4.20655 -31.4109
ltibia 11.0726
lfoot -13.8516 -0.451867
ltoes -4.32909
311
root 0.851415 17.8287 23.1373 -4.1545 4.6873 5.91381
lowerback 14.5213 -1.43418 -7.64285
upperback -0.516191 -3.15794 0.745341
thorax -8.27702 -1.17945 5.80093
lowerneck -9.78933 -0.0556314 -1.30023
upperneck 28.859 0.716314 -1.85206
head 10.903 -0.0353231 -0.359088
rclavicle 1.51201e-014 1.59028e-015
rhumerus -39.5757 -12.2074 -78.1251
rradius 27.3229
rwrist 5.18916
rhand -12.6407 10.5284
rfingers 7.12502
rthumb 13.4395 -19.0181
lclavicle 1.51201e-014 1.59028e-015
lhumerus -33.6546 -4.2542 85.077
lradius 43.4885
lwrist 7.00993
lhand -16.1591 52.1884
lfingers 7.12502
lthumb 10.0467 81.9285
rfemur -26.0187 5.15465 11.9127
rtibia 15.8054
rfoot -13.9802 -20.2154
rtoes 0.330893
lfemur 16.945 -4.35977 -31.9215
ltibia 10.7094
lfoot -13.7263 -0.480131
ltoes -6.14328
312
root 0.811745 17.8158 23.2989 -4.47132 4.14664 5.12363
lowerback 14.7519 -1.25789 -7.18969
upperback -0.404731 -2.83576 1.01729
thorax -8.34034 -1.03671 5.78387
lowerneck -9.86214 -0.101713 -1.52243
upperneck 28.8318 0.647187 -1.66854
head 10.906 -0.0691443 -0.262504
rclavicle -8.74653e-015 -7.95139e-016
rhumerus -39.5286 -12.6181 -77.891
rradius 26.9086
rwrist 5.64818
rhand -12.7439 10.4892
rfingers 7.12502
rthumb 13.3401 -19.0638
lclavicle -8.74653e-015 -7.95139e-016
lhumerus -33.592 -4.17501 85.0426
lradius 43.2787
lwrist 7.30496
lhand -16.6286 49.4032
lfingers 7.12502
lthumb 9.59369 79.1648
rfemur -26.1505 5.47659 13.3068
rtibia 17.0349
rfoot -13.3601 -20.3682
rtoes 2.08455
lfemur 17.6866 -4.24682 -30.9948
ltibia 10.7414
lfoot -13.9147 -0.221945
ltoes -7.83874
